<svg xmlns="http://www.w3.org/2000/svg" viewBox="0 0 48 48"><g data-name="图层 2"><g data-name="图层 1"><path fill="none" d="M0 0h48v48H0z"/><path d="M24 10.72a15.81 15.81 0 0115.8 15.81v11.54a1.59 1.59 0 01-1.59 1.59H9.78a1.59 1.59 0 01-1.59-1.59V26.53A15.81 15.81 0 0124 10.72zM22.61 2h2.77a.4.4 0 01.4.4v4.75a.4.4 0 01-.4.4h-2.77a.4.4 0 01-.4-.4V2.4a.4.4 0 01.4-.4zM7.41 8.13a.4.4 0 01.56 0H8l3.36 3.36a.4.4 0 010 .56l-2 2a.4.4 0 01-.56 0l-3.35-3.4a.4.4 0 010-.56zm33.18 0l2 2a.4.4 0 010 .56L39.19 14a.4.4 0 01-.56 0l-2-2a.4.4 0 010-.56L40 8.13a.4.4 0 01.56 0zM8.14 42.83h31.71a1.59 1.59 0 011.59 1.59v1.18a.4.4 0 01-.4.4H7a.4.4 0 01-.4-.4v-1.19a1.59 1.59 0 011.54-1.58zm7.33-15.71v12.54h3.17V27.12z"/></g></g></svg>