<svg xmlns="http://www.w3.org/2000/svg" viewBox="0 0 48 48"><g data-name="图层 2"><g data-name="图层 1"><path fill="none" d="M0 0h48v48H0z"/><path d="M10 37.2h.33l9.25-1.62a.54.54 0 00.29-.15L43.2 12.08a.55.55 0 000-.78l-9.14-9.14a.56.56 0 00-.78 0L10 25.47a.56.56 0 00-.15.29L8.19 35a1.84 1.84 0 00.52 1.64 1.86 1.86 0 001.29.56zm3.71-9.59L33.67 7.67l4 4-19.92 19.97-4.89.86zm30.53 14.21H3.76A1.76 1.76 0 002 43.58v2a.44.44 0 00.44.44h43.12a.44.44 0 00.44-.44v-2a1.76 1.76 0 00-1.76-1.76z"/></g></g></svg>