<svg xmlns="http://www.w3.org/2000/svg" viewBox="0 0 48 48"><g data-name="图层 2"><g data-name="图层 1"><path fill="none" d="M0 0h48v48H0z"/><path d="M45.71 23.57a30.58 30.58 0 00-6.6-9.39l-7.17 7.17A8.89 8.89 0 0120.26 33l-6.16 6.17a22.6 22.6 0 009.9 2.14q14.55 0 21.71-15.15a3 3 0 000-2.59zM42.48 6.8l-2.14-2.14a.41.41 0 00-.57 0l-5.89 5.89A22.35 22.35 0 0024 8.41q-14.55 0-21.71 15.15a3 3 0 000 2.6 30.67 30.67 0 006.6 9.39l-5.08 5.08a.41.41 0 000 .57l2.14 2.14a.41.41 0 00.57 0l36-36a.4.4 0 00-.04-.54zM15.77 28.66A8.89 8.89 0 0127.6 16.83z"/></g></g></svg>