<svg xmlns="http://www.w3.org/2000/svg" viewBox="0 0 200 200"><path d="M145.5 86.3h-38l12.7-21.5h25.4l-.1 21.5zm-74.1 30.3h84.2c4.1 0 7.9 1.6 10.6 4.1 2.8 2.5 4.4 6.1 4.4 9.8 0 3.8-1.7 6.7-4.4 9.2-2.9 2.7-6.7 4.1-10.6 4.1H71.4c-3.9 0-7.7-1.4-10.6-4.1-2.7-2.5-4.4-5.4-4.4-9.2s1.6-7.3 4.4-9.8c2.9-2.7 6.7-4.1 10.6-4.1zm-2.2 4.9c4.5 0 8.2 3.7 8.2 8.2s-3.7 8.2-8.2 8.2c-4.5 0-8.2-3.7-8.2-8.2 0-4.5 3.7-8.2 8.2-8.2zm62 16.7H94.9v-16.4h36.2l.1 16.4zm24.8-16.7c4.5 0 8.2 3.7 8.2 8.2s-3.7 8.2-8.2 8.2-8.2-3.7-8.2-8.2c-.1-4.5 3.6-8.2 8.2-8.2zm-96.5-16.8c-3.3 1.3-6.4 3.2-8.9 5.7V80.1H35.5L33 110.4l-18 44.8h35.6v-5.3c5.3 4.9 12.7 8 20.8 8h84.2c8.1 0 15.4-3.1 20.8-8 5.3-5 8.6-11.8 8.6-19.4 0-6.2-2.3-12-6-16.6-2.2-2.9-4.9-5.4-8.1-7.3V86.3h-6V45.5h-55.7l-2.8 4.8-21.4 36h-5.5V81h2V59.2h-2v-2l7.9-8.6-7.1-6.5-9.2 10-1.3 1.4v5.7H68V81h1.8v5.3H59.5v18.4z"/></svg>