<svg xmlns="http://www.w3.org/2000/svg" viewBox="0 0 48 48"><defs/><g id="图层_2" data-name="图层 2"><g id="图层_1-2" data-name="图层 1"><g id="chouti-nor"><path fill="none" d="M0 0h48v48H0z"/><path class="cls-2" d="M18 5a1 1 0 011 1v12a1 1 0 01-1 1H6a1 1 0 01-1-1V6a1 1 0 011-1h12m0-3H6a4 4 0 00-4 4v12a4 4 0 004 4h12a4 4 0 004-4V6a4 4 0 00-4-4zM18 29a1 1 0 011 1v12a1 1 0 01-1 1H6a1 1 0 01-1-1V30a1 1 0 011-1h12m0-3H6a4 4 0 00-4 4v12a4 4 0 004 4h12a4 4 0 004-4V30a4 4 0 00-4-4zM42 5a1 1 0 011 1v12a1 1 0 01-1 1H30a1 1 0 01-1-1V6a1 1 0 011-1h12m0-3H30a4 4 0 00-4 4v12a4 4 0 004 4h12a4 4 0 004-4V6a4 4 0 00-4-4z"/><rect class="cls-2" x="26" y="27" width="20" height="3" rx="1.5" ry="1.5"/><rect class="cls-2" x="26" y="42" width="20" height="3" rx="1.5" ry="1.5"/><rect class="cls-2" x="26" y="34.5" width="20" height="3" rx="1.5" ry="1.5"/></g></g></g></svg>