<svg xmlns="http://www.w3.org/2000/svg" viewBox="0 0 48 48"><defs/><g id="图层_2" data-name="图层 2"><g id="图层_1-2" data-name="图层 1"><g id="dianzan"><path fill="none" d="M0 0h48v48H0z"/><g id="dianzan-2" data-name="dianzan"><path class="cls-2" d="M42.36 19.62H30.65C35.19 2.86 27.52 2 27.52 2c-3.25 0-2.58 2.57-2.82 3 0 8.2-8.7 14.62-8.7 14.62v23.26c0 2.3 3.13 3.12 4.36 3.12h17.6c1.66 0 3-4.34 3-4.34 4.36-14.81 4.36-19.22 4.36-19.22a2.66 2.66 0 00-2.94-2.82zM11.18 19.63h-7a1.43 1.43 0 00-1.47 1.42l1.43 23.46A1.46 1.46 0 005.64 46h6.07C13 46 13 45 13 45V21.41a1.73 1.73 0 00-1.78-1.78z"/></g></g></g></g></svg>