<svg xmlns="http://www.w3.org/2000/svg" viewBox="0 0 48 48"><defs/><g id="图层_2" data-name="图层 2"><g id="图层_1-2" data-name="图层 1"><g id="jinru-o"><path fill="none" d="M0 0h48v48H0z"/><g id="jinru-o-2" data-name="jinru-o"><path class="cls-2" d="M30.27 23.68l-12.08-8.74a.39.39 0 00-.62.32v2.3a1.57 1.57 0 00.65 1.27L25.36 24l-7.14 5.17a1.57 1.57 0 00-.65 1.27v2.3a.39.39 0 00.62.32l12.08-8.74a.4.4 0 000-.64z"/><path class="cls-2" d="M24 2a22 22 0 1022 22A22 22 0 0024 2zm0 40.27A18.27 18.27 0 1142.27 24 18.27 18.27 0 0124 42.27z"/></g></g></g></g></svg>