<svg xmlns="http://www.w3.org/2000/svg" viewBox="0 0 48 48"><defs/><g id="图层_2" data-name="图层 2"><g id="图层_1-2" data-name="图层 1"><g id="keshi"><path fill="none" d="M0 0h48v48H0z"/><path class="cls-2" d="M18.15 24a5.65 5.65 0 105.65-5.65A5.65 5.65 0 0018.15 24z"/><path class="cls-2" d="M45.71 22.7C40.92 12.62 33.69 7.55 24 7.55S7.08 12.62 2.29 22.7a3 3 0 000 2.6C7.08 35.38 14.31 40.45 24 40.45s16.92-5.07 21.71-15.15a3 3 0 000-2.6zM23.8 32.88A8.88 8.88 0 1132.68 24a8.88 8.88 0 01-8.88 8.88z"/></g></g></g></svg>