<svg xmlns="http://www.w3.org/2000/svg" viewBox="0 0 107.03 56"><defs><style>.cls-1{fill:#fff;}.cls-2{opacity:0.2;}</style></defs><title>资源 5</title><g id="图层_2" data-name="图层 2"><g id="图层_1-2" data-name="图层 1"><path class="cls-1" d="M53,14H59.1V42H53Z"/><path class="cls-1" d="M65.31,14h6.13V42H65.31Z"/><path class="cls-1" d="M77.66,14h10l4.64,15.77h.24L97.35,14H107V42H101V20h-.24L95.33,36.71H89.2L83.88,20h-.24V42h-6Z"/><polygon class="cls-1" points="40 14 40 4 0 0 0 8 0 48 0 56 40 52 40 42 10 42 10 34 26 22 10 22 10 14 40 14"/><polygon class="cls-1" points="28.56 30.58 27.11 31.67 25.78 32.67 24.33 33.75 24 34 40 34 40 22 29.89 29.58 28.56 30.58"/><polygon class="cls-2" points="40 46 40 42 10 42 40 46"/><polygon class="cls-2" points="24.22 23.33 25.67 22.25 26 22 10 22 23.59 23.81 24.22 23.33"/><polygon class="cls-2" points="40 22 24 34 28 34 40 22"/></g></g></svg>