<svg xmlns="http://www.w3.org/2000/svg" viewBox="0 0 300.82 56"><defs><style>.cls-1{fill:#444;}.cls-2{fill:#7cb342;}.cls-3{opacity:0.2;}</style></defs><title>logo-G</title><g id="图层_2" data-name="图层 2"><g id="图层_1-2" data-name="图层 1"><path class="cls-1" d="M124.62,30.66l-.43-.93c4.37-1.92,6.57-3.78,7.15-6.69h-6.72v-.9h6.84V22c.09-.74.09-2.88.09-3.75h-3.1a20.55,20.55,0,0,1-2.2,3.16l-.74-.62a24.94,24.94,0,0,0,3.9-6.78l.9.34a29.15,29.15,0,0,1-1.33,3h8.76v.9h-5.23c0,.87-.06,3-.06,3.72v.19h6.1V23h-6.2c-.09.4-.15.77-.28,1.15,1.58,1.08,4.77,3.19,6.07,4.09l-.56.9c-1.33-1-4.21-3-5.89-4.09C130.63,27.32,128.37,28.93,124.62,30.66ZM129,30h17.34V41.91h-1.08V40.23H130.07V42H129Zm1.08.93v3.78h15.18V30.91Zm15.18,8.33V35.59H130.07v3.65Zm3.87-22.08V27H140V17.16Zm-1,1H141V26h7.12Z"/><path class="cls-1" d="M154.69,40.54a28.19,28.19,0,0,0,3.59-4.86l.87.5a29.19,29.19,0,0,1-3.72,5Zm6.63-16h-6.6v-.87h6.6V21.19h-5.27v-.81h5.27V17.75h-5.88v-.81h5.88v-2.6l1,.06v2.54h4.86v.81h-4.86v2.63h4.55v.81h-4.55v2.54h5v.87h-5v1.77h-1Zm16,9.73h-20.6v-.84h19.61V31.1H157.82v-.84h18.52V27.88h-19.2V27h20.2Zm-4.12,2.45.93.4a10.19,10.19,0,0,1-.12,1.52c-.25,2-.93,2.54-3.38,2.63-2,.09-4.06.09-6.07,0-2.32-.09-3-.56-3-2.94v-3.1l1,.06v2.94c0,1.73.53,2.07,2.29,2.17s3.75.09,5.64,0,2.45-.4,2.6-2A15,15,0,0,0,173.21,36.77Zm-6.5-2.23c.77.77,2.79,2.76,3.53,3.59l-.74.62A34,34,0,0,0,166,35.19Zm13.63-10.81v.87H174v1.77h-1V24.59h-5.11v-.87H173V21.19h-4.71v-.81H173V17.75h-5v-.81h5v-2.6l1,.06v2.54h5.67v.81H174v2.63h5.08v.81H174v2.54Zm-4.46,11.58c1.33,1.33,3.28,3.59,4.37,5l-.77.65a39.85,39.85,0,0,0-4.31-5Z"/><path class="cls-1" d="M183.56,22.18a49.71,49.71,0,0,1,5.2,4.58l-.62.87c-1.36-1.3-4-3.59-5.33-4.62Zm5,8.55c-.74,2.82-2.29,8-3.38,10.72l-1.05-.28a109.84,109.84,0,0,0,3.41-10.72l.53.12Zm-3.78-15.8a60.87,60.87,0,0,1,5.11,4.52l-.62.87c-1.24-1.24-4-3.62-5.11-4.55ZM208.52,38c0,2.54-.84,3-3.47,3.16l-1.77.12L203,40.27l1.83-.12c2.23-.15,2.63-.46,2.63-2.32V17.38h-15V41.57h-1.08V16.32h17.19ZM194.34,23V22h11.21v1ZM196,36.21V27.35h7.93v8.86Zm7-7.84h-6v6.81h6Z"/><path class="cls-1" d="M227.38,22.86c-2.63,5.11-7.15,8.83-13.63,11.93l-.43-.9c6.19-2.94,10.65-6.5,13-11h-6.1c-.22.25-.37.5-.59.74.84.68,2.79,2.14,3.44,2.63l-.53.68-3.44-2.66c-.62.74-1.3,1.49-2,2.2.81.71,2.54,2.2,3.19,2.7l-.62.62c-.74-.62-2.29-2-3.16-2.76-.65.62-1.3,1.18-2,1.77L214,28a28.33,28.33,0,0,0,7.31-8.52l.87.4c-.4.71-.84,1.42-1.3,2.11h6.54Zm-13,17.38A46.33,46.33,0,0,0,222,36l.5.77a38.93,38.93,0,0,1-7.59,4.31ZM216.51,22h-1.05V17.31h11.86c-.31-1.21-.59-2-1-3.13l1.05-.12c.4,1.21.68,2,1,3.25H239v4.4h-1.05V18.24H216.51Zm11.65,12.73v3.69c0,2.32-.56,2.6-3.22,2.85l-1.89.15-.28-.93,1.92-.12c2.23-.09,2.42-.5,2.42-2.07V34.72h-8.61v-.9H236.7v.9Zm-5.23-5.17h9.57v.93h-9.57Zm18.24,3.22-.4.9c-7.31-3-11-6.81-13-13.88l.9-.25c.25.87.53,1.7.81,2.48H238v.9c-1.15,1.39-3.25,3.65-4.68,5.08A24.68,24.68,0,0,0,241.16,32.77Zm-11.27-9.85a16.61,16.61,0,0,0,2.82,4.43c1.33-1.24,3-3.13,4.18-4.43Zm2,13.16c2,1,6.07,2.88,7.87,3.87l-.47.9c-1.7-1-5.7-2.94-7.84-3.93Z"/><path class="cls-1" d="M247.64,24l-.53,5.64h11c0,.25-.4,6-.53,7.37-.25,3.07-1.21,3.56-5.17,3.72l-4.24.16-.31-1.08,4.34-.12c3.38-.09,4.09-.46,4.34-2.91.09-1,.34-5,.43-6.1H245.9l.71-7.68h10.47V17.22H245.84V16.17h12.39V24Zm18.27,17.78V14.62l1.11.06V41.75Z"/><path class="cls-1" d="M276.1,21.19a27.18,27.18,0,0,1-2.91,3.07l-.43-.81a16,16,0,0,0,3.84-4.58l.81.28c-.22.4-.43.81-.68,1.21h10.81c0,.19-.19,4.8-.28,5.45-.15,1.67-.84,2-3,2.23l-.77.09-.25-.87.87-.06c1.83-.16,2.17-.37,2.26-1.58,0-.59.12-3.69.22-4.43Zm12,15.64H300.2v.84H288.05v1.05c0,2.11-.71,2.66-3.28,2.76l-3,.16-.28-.9,3-.12c2.14-.09,2.51-.4,2.51-2v-.93H273.62v-.84H287V34.16H276.84V33.3H287V30.76c-4.31.25-8.46.37-11.55.4l-.06-.87A196.11,196.11,0,0,0,297.07,29l.09.87c-2.76.34-5.92.62-9.11.84v2.6h8.89v.87h-8.89Zm-9.6-19.08h-4.74v-.87h4.74v-2.6l1,.06v2.54h4.31v-2.6l1,.06v2.54h4.58v.87h-4.58v1.77h-1V17.75h-4.31v1.7h-1Zm-2.6,9.48V23.17h7v4.06Zm.81-.77H282V23.91h-5.3Zm24.16.87-.34,1a23.79,23.79,0,0,1-6.35-3.07A20.45,20.45,0,0,1,288,28.37l-.37-.93a21,21,0,0,0,5.79-2.79,10.61,10.61,0,0,1-3.16-4.37,24,24,0,0,1-1.58,2.17l-.62-.74a25.36,25.36,0,0,0,4.18-7.5l.9.28A24.82,24.82,0,0,1,291.62,18h8.61v.87h-2.14a12,12,0,0,1-3.25,5.76A22.55,22.55,0,0,0,300.82,27.32Zm-10-8a10.24,10.24,0,0,0,3.28,4.71,11.49,11.49,0,0,0,3-5.23h-6Z"/><path class="cls-1" d="M53,14H59.1V42H53Z"/><path class="cls-1" d="M65.31,14h6.13V42H65.31Z"/><path class="cls-1" d="M77.66,14h10l4.64,15.77h.24L97.35,14H107V42H101V20h-.24L95.33,36.71H89.2L83.88,20h-.24V42h-6Z"/><polygon class="cls-2" points="40 14 40 4 0 0 0 8 0 48 0 56 40 52 40 42 10 42 10 34 26 22 10 22 10 14 40 14"/><polygon class="cls-2" points="28.56 30.58 27.11 31.67 25.78 32.67 24.33 33.75 24 34 40 34 40 22 29.89 29.58 28.56 30.58"/><polygon class="cls-3" points="40 46 40 42 10 42 40 46"/><polygon class="cls-3" points="24.22 23.33 25.67 22.25 26 22 10 22 23.59 23.81 24.22 23.33"/><polygon class="cls-3" points="40 22 24 34 28 34 40 22"/></g></g></svg>