<?xml version="1.0" encoding="utf-8"?>
<!-- Generator: Adobe Illustrator 21.0.0, SVG Export Plug-In . SVG Version: 6.00 Build 0)  -->
<svg version="1.1" id="图层_1" xmlns="http://www.w3.org/2000/svg" xmlns:xlink="http://www.w3.org/1999/xlink" x="0px" y="0px"
	 viewBox="0 0 200 200" style="enable-background:new 0 0 200 200;" xml:space="preserve">
<style type="text/css">
	.st0{fill:#FFFFFF;}
</style>
<g>
	<path d="M107.6,118.3v66.8c0,1-0.8,1.9-1.9,1.9l0,0H94.3c-1,0-1.9-0.8-1.9-1.9l0,0v-66.8C66,114.5,45.8,91.3,47,63.5
		C48.3,36.4,70.3,14.3,97.5,13c30.4-1.4,55.5,22.8,55.5,52.9C153,92.6,133.2,114.6,107.6,118.3L107.6,118.3z"/>
	<path class="st0" d="M84.9,65.9c0,8.4,6.8,15.1,15.1,15.1c8.4,0,15.1-6.8,15.1-15.1l0,0c0-8.4-6.8-15.1-15.1-15.1
		S84.9,57.6,84.9,65.9z"/>
</g>
</svg>
