<svg xmlns="http://www.w3.org/2000/svg" viewBox="0 0 48 48"><defs/><g id="图层_2" data-name="图层 2"><g id="图层_1-2" data-name="图层 1"><g id="shanchu-o"><path fill="none" d="M0 0h48v48H0z"/><g id="shanchu-o-2" data-name="shanchu-o"><path class="cls-2" d="M15.64 6h-.44a.44.44 0 00.44-.44V6h16.72v-.48a.44.44 0 00.44.48h-.44v4h4V5.52A3.52 3.52 0 0032.8 2H15.2a3.52 3.52 0 00-3.52 3.52v4.4h4z"/><path class="cls-2" d="M43.36 9.92H4.64a1.76 1.76 0 00-1.76 1.76v1.76a.44.44 0 00.44.44h3.32L8 42.65A3.52 3.52 0 0011.52 46h25A3.52 3.52 0 0040 42.65l1.36-28.76h3.32a.44.44 0 00.44-.44v-1.77a1.76 1.76 0 00-1.76-1.76zM36.06 42H11.94l-1.33-28.12h26.78z"/></g></g></g></g></svg>