<svg xmlns="http://www.w3.org/2000/svg" viewBox="0 0 48 48"><defs/><g id="图层_2" data-name="图层 2"><g id="图层_1-2" data-name="图层 1"><g id="shezhi"><path fill="none" d="M0 0h48v48H0z"/><path class="cls-2" d="M24 17.46a6 6 0 104.24 1.76A6 6 0 0024 17.46z"/><path class="cls-2" d="M46.13 30.1l-3.51-3a19.13 19.13 0 000-6.19l3.51-3a1.72 1.72 0 00.5-1.89v-.14a23.74 23.74 0 00-4.27-7.39l-.1-.11a1.72 1.72 0 00-1.88-.51L36 9.42a18.73 18.73 0 00-5.34-3.08l-.84-4.55A1.72 1.72 0 0028.4.41h-.14a24.18 24.18 0 00-8.52 0h-.14a1.72 1.72 0 00-1.38 1.38l-.85 4.58a19 19 0 00-5.31 3.07L7.67 7.87a1.72 1.72 0 00-1.88.51l-.1.11a23.92 23.92 0 00-4.27 7.39v.14a1.72 1.72 0 00.5 1.89l3.55 3a18.86 18.86 0 00-.3 3.09 18.67 18.67 0 00.25 3.06l-3.54 3a1.72 1.72 0 00-.5 1.94v.14A23.8 23.8 0 005.7 39.5l.1.11a1.72 1.72 0 001.88.51l4.39-1.56a18.58 18.58 0 005.31 3.07l.85 4.58a1.72 1.72 0 001.38 1.38h.14a24 24 0 008.52 0h.14a1.72 1.72 0 001.38-1.38l.84-4.55A18.86 18.86 0 0036 38.57l4.36 1.55a1.72 1.72 0 001.88-.51l.1-.11a23.92 23.92 0 004.27-7.39v-.14a1.73 1.73 0 00-.48-1.87zM24 32.9a9.43 9.43 0 119.43-9.43A9.43 9.43 0 0124 32.9z"/></g></g></g></svg>