<svg xmlns="http://www.w3.org/2000/svg" viewBox="0 0 48 48"><g data-name="图层 2"><g data-name="图层 1"><path fill="none" d="M0 0h48v48H0z"/><path d="M35.61 30.22q.75 3.69 1.32 6.68.26 1.26.48 2.52t.42 2.29q.2 1 .33 1.75t.18.91q.13.93-.39 1.24a2.33 2.33 0 01-1.18.3 1.93 1.93 0 01-.64-.16l-.64-.26L24 38.39q-3.11 2-5.66 3.5L16.2 43.2l-2 1.21q-.88.56-1.51.93t-.86.47A1.42 1.42 0 0111 46a1.82 1.82 0 01-.83-.35A1.7 1.7 0 019.6 45a1.31 1.31 0 01-.09-.82l.22-.91q.18-.72.39-1.73t.5-2.22q.28-1.21.59-2.48l1.49-6.54q-2.57-2.42-4.63-4.3l-1.73-1.55L4.8 23l-1.12-1-.48-.44a5.52 5.52 0 01-.9-1.14 2 2 0 01-.3-1.27 1.67 1.67 0 01.48-1 1.75 1.75 0 01.88-.47l13.55-1.31L22 3.82a3.76 3.76 0 01.75-1.28A1.68 1.68 0 0124 2a1.4 1.4 0 01.77.21 2.18 2.18 0 01.55.49 4.16 4.16 0 01.37.56q.15.28.24.47l4.91 12.52 13.58 1.35a3 3 0 011.23.56 1.34 1.34 0 01.35 1 1.84 1.84 0 01-.37 1.14q-.37.49-.94 1.19l-9.08 8.69z"/></g></g></svg>