<svg xmlns="http://www.w3.org/2000/svg" viewBox="0 0 48 48"><defs/><g id="图层_2" data-name="图层 2"><g id="图层_1-2" data-name="图层 1"><g id="shuoming"><path fill="none" d="M0 0h48v48H0z"/><path class="cls-2" d="M24 2a22 22 0 1022 22A22 22 0 0024 2zm0 40.27A18.27 18.27 0 1142.27 24 18.27 18.27 0 0124 42.27z"/><path class="cls-2" d="M29.48 14.41a8.51 8.51 0 00-11 0 6.69 6.69 0 00-2.38 5.07v.37a.39.39 0 00.39.39h2.36a.39.39 0 00.39-.39v-.37c0-2.17 2.12-3.93 4.71-3.93s4.71 1.76 4.71 3.93A4 4 0 0126 23.05a5.49 5.49 0 00-2.56 2 5.62 5.62 0 00-1 3.19v1.06a.39.39 0 00.39.39h2.36a.39.39 0 00.39-.39v-1.11a2.37 2.37 0 011.5-2.19 7.09 7.09 0 004.77-6.51 6.67 6.67 0 00-2.37-5.08zM22 34.8a2 2 0 102-2 2 2 0 00-2 2z"/></g></g></g></svg>