<svg xmlns="http://www.w3.org/2000/svg" viewBox="0 0 48 48"><defs/><g id="图层_2" data-name="图层 2"><g id="图层_1-2" data-name="图层 1"><g id="tubiao"><path fill="none" d="M0 0h48v48H0z"/><path class="cls-2" d="M45.54 40H6.13V4.29a.46.46 0 00-.46-.46H2.46a.46.46 0 00-.46.46v39.42a.46.46 0 00.46.46h43.08a.46.46 0 00.46-.46V40.5a.46.46 0 00-.46-.5z"/><path class="cls-2" d="M11.17 35.46h3.21a.46.46 0 00.46-.46v-8.25a.46.46 0 00-.46-.46h-3.21a.46.46 0 00-.46.46V35a.46.46 0 00.46.46zm8.71 0h3.21a.46.46 0 00.46-.46V16.67a.46.46 0 00-.46-.46h-3.21a.46.46 0 00-.46.46V35a.46.46 0 00.46.46zm8.71 0h3.21a.46.46 0 00.46-.46V21.14a.46.46 0 00-.46-.46h-3.22a.46.46 0 00-.46.46V35a.46.46 0 00.46.46zm8.71 0h3.2A.46.46 0 0041 35V12.08a.46.46 0 00-.46-.46h-3.25a.46.46 0 00-.46.46V35a.46.46 0 00.46.46z"/></g></g></g></svg>