<svg xmlns="http://www.w3.org/2000/svg" viewBox="0 0 48 48"><g data-name="图层 2"><g data-name="图层 1"><path fill="none" d="M0 0h48v48H0z"/><path d="M41.6 21.36H14.1V9a3.08 3.08 0 013.08-3h13.64a3.08 3.08 0 013.08 3v3.74a.44.44 0 00.44.44h3.08a.44.44 0 00.44-.44V9a7 7 0 00-7-7H17.18a7 7 0 00-7 7v12.36H6.4a1.76 1.76 0 00-1.76 1.76v21.12A1.76 1.76 0 006.4 46h35.2a1.76 1.76 0 001.76-1.76V23.12a1.76 1.76 0 00-1.76-1.76zm-16.06 13v2.91a.44.44 0 01-.44.44h-2.2a.44.44 0 01-.44-.44V34.4a2.64 2.64 0 113.08 0z"/></g></g></svg>