<svg version="1.1" id="图层_1" xmlns="http://www.w3.org/2000/svg" x="0" y="0" viewBox="0 0 48 48" xml:space="preserve"><g id="图层_2"><g id="图层_1-2"><g id="dianzan"><path fill="none" d="M0 0h48v48H0z"/><g id="dianzan-2"><path class="st1" d="M5.6 28.4h11.7C12.8 45.1 20.5 46 20.5 46c3.2 0 2.6-2.6 2.8-3 0-8.2 8.7-14.6 8.7-14.6V5.1C32 2.8 28.9 2 27.6 2H10C8.4 2 7 6.3 7 6.3 2.7 21.2 2.7 25.6 2.7 25.6c-.1 1.5 1 2.7 2.5 2.8h.4zM36.8 28.4h7c.8 0 1.4-.6 1.5-1.4L43.9 3.5c0-.8-.6-1.5-1.4-1.5H36.3C35 2 35 3 35 3v23.6c0 1 .7 1.8 1.7 1.8h.1z"/></g></g></g></g></svg>