<svg xmlns="http://www.w3.org/2000/svg" viewBox="0 0 48 48"><defs/><g id="图层_2" data-name="图层 2"><g id="图层_1-2" data-name="图层 1"><g id="xinxi"><path fill="none" d="M0 0h48v48H0z"/><g id="xinxi-2" data-name="xinxi"><path class="cls-2" d="M24 2a22 22 0 1022 22A22 22 0 0024 2zm0 40.27A18.27 18.27 0 1142.27 24 18.27 18.27 0 0124 42.27z"/><path class="cls-2" d="M21.64 15.36A2.36 2.36 0 1024 13a2.36 2.36 0 00-2.36 2.36zM25.18 20.86h-2.36a.39.39 0 00-.39.39v13.36a.39.39 0 00.39.39h2.36a.39.39 0 00.39-.39V21.25a.39.39 0 00-.39-.39z"/></g></g></g></g></svg>